<svg xmlns="http://www.w3.org/2000/svg" viewBox="-10 -8.5 20 17">
	<path d="M -1 -3.5 C -3 -3.5 -5 -2.5 -5 -1.5 C -5 -0.5 -3 0.5 0 0.5 C 3 0.5 5 -0.5 5 -1.5 C 5 -2.5 3 -3.5 1 -3.5 L 1 -4.5 C 3 -4.5 6 -3.5 6 -1.5 C 6 0.5 3 1.5 0 1.5 C -3 1.5 -6 0.5 -6 -1.5 C -6 -3.5 -3 -4.5 -1 -4.5 L -1 -3.5 M 0.5 0 L 0.5 -8.5 L -0.5 -8.5 L -0.5 0 L 0.5 0 M 0.5 2 L 0.5 2.5 L 9 2.5 L 10 3.5 L -10 3.5 L -9 2.5 L -0.5 2.5 L -0.5 2 L 0.5 2 M 7 3.5 L 7 8.5 L 6 8.5 L 6 3.5 M -7 3.5 L -7 8.5 L -6 8.5 L -6 3.5" fill="#ee7444"/>
</svg>