<svg xmlns="http://www.w3.org/2000/svg" viewBox="-10 -10 20 20">
	<path d="M 2 -0.25 L 4.75 -0.25 L 4.75 2.75 L 2 2.75 L 2 -0.25 M -2 -0.25 L -4.75 -0.25 L -4.75 2.75 L -2 2.75 L -2 -0.25 M -1.5 -0.25 L -1.5 2.75 L 1.5 2.75 L 1.5 -0.25 L -1.5 -0.25 M 5 3 L -5 3 L -5 -9 L 5 -9 L 5 3 M 10 -9 L 9 -10 L -9 -10 L -10 -9 L -6 -9 L -6 9 L -10 9 L -10 10 L 10 10 L 10 9 L 6 9 L 6 -9 L 10 -9 M 6.25 -8.75 L 6.25 8.75 L 10 8.75 L 10 -2 L 8 -2 L 8 -8.75 L 6.25 -8.75 M -6.25 -8.75 L -6.25 8.75 L -10 8.75 L -10 -2 L -8 -2 L -8 -8.75 L -6.25 -8.75 M -5 4 L 5 4 L 5 9 L -5 9 L -5 4 M -4.75 4.25 L -4.75 8.75 L 4.75 8.75 L 4.75 4.25 L -4.75 4.25" fill="#ee7444"/>
</svg>